<?xml version="1.0" encoding="UTF-8"?>
<svg version="1.1" xmlns="http://www.w3.org/2000/svg" width="64" height="64">
<path d="M0 0 C0.680625 0.99 0.680625 0.99 1.375 2 C2.89599894 4.32280201 2.89599894 4.32280201 6 4.5 C9.10400629 4.29468448 9.10400629 4.29468448 10.875 2 C11.24625 1.34 11.6175 0.68 12 0 C16.97306516 0.49730652 20.63799813 1.55302334 25 4 C24.79375 5.093125 24.5875 6.18625 24.375 7.3125 C23.59653475 11.0838401 23.59653475 11.0838401 26 14 C28.03131187 13.93551391 30.06261765 13.87069341 32.09375 13.80078125 C34 14 34 14 35.9375 16.0625 C37.13793632 19.38135337 37.65621199 22.49336227 38 26 C37.0409375 26.3403125 37.0409375 26.3403125 36.0625 26.6875 C33.8122702 27.85747604 33.8122702 27.85747604 32.9375 30.3125 C32.958125 31.199375 32.97875 32.08625 33 33 C33.825 33.78375 34.65 34.5675 35.5 35.375 C38 38 38 38 38 41.5 C36.25827815 47.59602649 36.25827815 47.59602649 34 50 C31.28624731 50.33365812 28.74746036 50.13083145 26 50 C23.81668311 51.76136355 23.81668311 51.76136355 23.8046875 53.9453125 C23.82789063 54.66460937 23.85109375 55.38390625 23.875 56.125 C23.91625 57.40375 23.9575 58.6825 24 60 C16.71428571 64.57142857 16.71428571 64.57142857 12 64 C11.505 62.02 11.505 62.02 11 60 C8.25038489 59.05392193 8.25038489 59.05392193 5 59 C4.195625 59.825 3.39125 60.65 2.5625 61.5 C0 64 0 64 -3.5 64 C-9.59602649 62.25827815 -9.59602649 62.25827815 -12 60 C-12.33365812 57.28624731 -12.13083145 54.74746036 -12 52 C-13.76136355 49.81668311 -13.76136355 49.81668311 -15.9453125 49.8046875 C-18.97265625 49.90234375 -18.97265625 49.90234375 -22 50 C-22.67667998 48.75539217 -23.34094719 47.50403104 -24 46.25 C-24.37125 45.55390625 -24.7425 44.8578125 -25.125 44.140625 C-26 42 -26 42 -26 38 C-23.5 35.25 -23.5 35.25 -21 33 C-22.24976756 29.34683329 -22.67098753 28.21934164 -26 26 C-25.5317879 21.22423661 -24.75668002 17.95523655 -22 14 C-21.0925 14.226875 -20.185 14.45375 -19.25 14.6875 C-16.08255534 15.24053015 -16.08255534 15.24053015 -13.625 14.0625 C-11.07204712 10.82221366 -11.73470061 8.04581568 -12 4 C-10.75539217 3.32332002 -9.50403104 2.65905281 -8.25 2 C-7.55390625 1.62875 -6.8578125 1.2575 -6.140625 0.875 C-4 0 -4 0 0 0 Z M-1 24 C-3.04025925 26.3035185 -3.92595943 27.87368593 -4.12890625 30.9609375 C-3.89575324 34.76203808 -3.40392376 36.54991352 -0.8125 39.4375 C2.3482471 41.19347061 4.37921329 41.92610639 8 42 C11.97472063 40.47126129 13.61853665 39.57219503 16 36 C16.54569584 32.93261495 16.52252815 30.07052623 16 27 C13.6066679 23.62117821 11.96721278 22.32926392 8.0625 21 C4.18954927 21 2.21402838 21.85731441 -1 24 Z " fill="#FFFFFF" transform="translate(26,0)"/>
</svg>
