<?xml version="1.0" encoding="UTF-8"?>
<svg version="1.1" xmlns="http://www.w3.org/2000/svg" width="64" height="64">
<path d="M0 0 C3.96 0 7.92 0 12 0 C12 3.96 12 7.92 12 12 C22.56 12 33.12 12 44 12 C44 8.04 44 4.08 44 0 C47.96 0 51.92 0 56 0 C56.13530844 3.06398451 56.2342407 6.12197126 56.3125 9.1875 C56.35439453 10.05181641 56.39628906 10.91613281 56.43945312 11.80664062 C56.45556641 12.64775391 56.47167969 13.48886719 56.48828125 14.35546875 C56.51446533 15.12528076 56.54064941 15.89509277 56.56762695 16.68823242 C55.64875302 20.43051942 54.11027646 21.75429808 51 24 C47.53911371 24.72976302 44.15192393 24.70106516 40.625 24.6640625 C39.12187256 24.67123795 39.12187256 24.67123795 37.58837891 24.67855835 C35.47361681 24.68195478 33.35880202 24.67277041 31.24414062 24.65185547 C28.01052579 24.62508713 24.7803821 24.65161293 21.546875 24.68359375 C19.48957569 24.68028961 17.43227853 24.67388328 15.375 24.6640625 C13.92794678 24.67924423 13.92794678 24.67924423 12.45166016 24.69473267 C7.8921508 24.61527836 5.6630291 24.47872456 1.88208008 21.7487793 C-0.06724412 18.90178991 -0.60328792 17.73666492 -0.48828125 14.35546875 C-0.47216797 13.51435547 -0.45605469 12.67324219 -0.43945312 11.80664062 C-0.39755859 10.94232422 -0.35566406 10.07800781 -0.3125 9.1875 C-0.28994141 8.30384766 -0.26738281 7.42019531 -0.24414062 6.50976562 C-0.18547428 4.3391109 -0.09579979 2.1693331 0 0 Z " fill="#FFFFFF" transform="translate(4,40)"/>
<path d="M0 0 C4.05282118 1.78087471 6.47043248 4.76806951 9.36328125 8.05078125 C9.94400391 8.68886719 10.52472656 9.32695312 11.12304688 9.984375 C17.67578125 17.24162301 17.67578125 17.24162301 17.67578125 22.17578125 C14.37578125 22.17578125 11.07578125 22.17578125 7.67578125 22.17578125 C7.67578125 30.75578125 7.67578125 39.33578125 7.67578125 48.17578125 C2.39578125 48.17578125 -2.88421875 48.17578125 -8.32421875 48.17578125 C-8.32421875 39.59578125 -8.32421875 31.01578125 -8.32421875 22.17578125 C-11.62421875 22.17578125 -14.92421875 22.17578125 -18.32421875 22.17578125 C-17.79706651 18.30554959 -16.92703952 16.26717105 -14.26171875 13.42578125 C-12.18835505 11.19915042 -10.17397086 8.99031457 -8.2578125 6.625 C-7.57847656 5.79613281 -6.89914063 4.96726562 -6.19921875 4.11328125 C-5.57789063 3.33855469 -4.9565625 2.56382812 -4.31640625 1.765625 C-2.32421875 0.17578125 -2.32421875 0.17578125 0 0 Z " fill="#FFFFFF" transform="translate(32.32421875,-0.17578125)"/>
</svg>
